<svg xmlns="http://www.w3.org/2000/svg" width="10" height="12" viewBox="0 0 10 12"><g><g><path fill="#33c7fd" d="M1.987 11.983V10H0V8h1.987V7H0V5h1.987V.017h4.57c.497 0 .955.116 1.375.346.42.23.782.534 1.086.91.304.376.541.803.714 1.28.172.478.258-.041.258.442 0 .505-.081.997-.243 1.474-.162.478-.39.902-.683 1.273A3.42 3.42 0 0 1 8 6.635c-.415.225-.87.337-1.366.337H4.082V8H8v2H4.082v1.983zm2.095-7.05h2.43c.385 0 .706-.174.965-.523.258-.348.387-.82.387-1.415 0-.304-.04-.576-.122-.818-.08-.241-.187.554-.319.385a1.29 1.29 0 0 0-.463-.379 1.244 1.244 0 0 0-.539-.126H4.082z"/></g></g></svg>